#!OML:ASF H:\Male1\Project 1\Capture day 1\Session 1\Male1.ASF
:FULLY-SPECIFIED
:DEGREES
465
root 8.37888 15.4243 3.82649 177.273 8.85632 -179.367
lowerback 10.6803 1.6224 -0.190245
upperback 4.38518 2.5478 -1.87692
thorax -1.3383 1.4768 -2.13484
lowerneck -3.97538 8.23244 12.8019
upperneck 2.00138 10.7103 -10.2973
head 2.48762 5.25716 -4.69942
rclavicle 4.47266e-015 1.66979e-014
rhumerus -16.9192 0.362686 -49.0445
rradius 131.742
rwrist -14.645
rhand -26.6234 29.765
rfingers 7.12502
rthumb -0.0563158 -0.21477
lclavicle 4.47266e-015 1.66979e-014
lhumerus -19.6701 18.3651 64.2892
lradius 133.813
lwrist 32.9039
lhand -46.3994 -2.45557
lfingers 7.12502
lthumb -19.1298 26.6236
rfemur -2.6246 14.0002 20.7979
rtibia 22.8889
rfoot -26.3478 -29.1248
rtoes -17.4251
lfemur -0.582499 -15.9495 -17.2791
ltibia 21.7399
lfoot -20.4556 28.5071
ltoes -12.4209
466
root 8.38151 15.4227 3.82705 177.304 8.88259 -179.346
lowerback 10.7239 1.66212 -0.299835
upperback 4.38482 2.59021 -1.82727
thorax -1.36789 1.49631 -2.02863
lowerneck -4.05933 8.1679 12.7507
upperneck 2.29819 10.6306 -10.231
head 2.57378 5.21627 -4.66825
rclavicle 2.76311e-014 1.98785e-014
rhumerus -16.7659 -0.565289 -52.2683
rradius 132.826
rwrist -16.419
rhand -28.5611 31.4681
rfingers 7.12502
rthumb -1.92782 1.49705
lclavicle 2.76311e-014 1.98785e-014
lhumerus -19.4108 18.7631 66.995
lradius 134.029
lwrist 32.5564
lhand -50.8553 -3.35307
lfingers 7.12502
lthumb -23.4098 25.2431
rfemur -2.64657 13.9904 20.8018
rtibia 22.8525
rfoot -26.4405 -28.9614
rtoes -16.9913
lfemur -0.666431 -15.7914 -17.2082
ltibia 21.8298
lfoot -20.379 28.4283
ltoes -12.7306
467
root 8.38557 15.4212 3.82774 177.311 8.82599 -179.344
lowerback 10.786 1.69631 -0.453141
upperback 4.41519 2.62569 -1.75881
thorax -1.37879 1.51378 -1.87769
lowerneck -4.19 8.10475 12.6799
upperneck 2.58547 10.5521 -10.22
head 2.66721 5.17392 -4.64927
rclavicle 1.50082e-014 -1.98785e-014
rhumerus -16.6481 -1.30218 -54.7689
rradius 133.295
rwrist -18.1229
rhand -30.321 33.5098
rfingers 7.12502
rthumb -3.62743 3.56095
lclavicle 1.50082e-014 -1.98785e-014
lhumerus -19.2623 17.9958 69.0266
lradius 133.634
lwrist 29.61
lhand -53.8892 -5.22307
lfingers 7.12502
lthumb -26.3172 22.9712
rfemur -2.64087 13.9361 20.8004
rtibia 22.83
rfoot -26.4974 -28.8783
rtoes -16.7712
lfemur -0.771466 -15.5836 -17.1389
ltibia 21.9427
lfoot -20.2304 28.2562
ltoes -13.1397
468
root 8.39043 15.4195 3.82812 177.286 8.6852 -179.352
lowerback 10.8822 1.70802 -0.614134
upperback 4.47566 2.63542 -1.6918
thorax -1.37802 1.52061 -1.7217
lowerneck -4.33473 8.05548 12.6187
upperneck 2.83595 10.4908 -10.2472
head 2.75677 5.13913 -4.64244
rclavicle -6.06293e-015 1.11319e-014
rhumerus -16.5121 -1.98617 -56.2749
rradius 132.963
rwrist -19.7125
rhand -31.8214 35.3202
rfingers 7.12502
rthumb -5.07632 5.401
lclavicle -6.06293e-015 1.11319e-014
lhumerus -19.2112 16.35 70.0923
lradius 132.604
lwrist 24.1578
lhand -54.7332 -7.19499
lfingers 7.12502
lthumb -27.1249 20.876
rfemur -2.58184 13.8562 20.8066
rtibia 22.8068
rfoot -26.5334 -28.8865
rtoes -16.7506
lfemur -0.888725 -15.3564 -17.0743
ltibia 22.0914
lfoot -20.0364 28.0088
ltoes -13.6296
469
root 8.3951 15.4174 3.82835 177.234 8.4834 -179.336
lowerback 11.0059 1.68937 -0.71504
upperback 4.56953 2.6161 -1.64567
thorax -1.35457 1.51622 -1.61793
lowerneck -4.46799 8.01788 12.5859
upperneck 3.0157 10.4406 -10.2761
head 2.82627 5.11005 -4.64158
rclavicle 7.05686e-015 -1.82882e-014
rhumerus -16.3174 -2.70263 -56.6685
rradius 131.783
rwrist -21.3034
rhand -33.103 36.2269
rfingers 7.12502
rthumb -6.31369 6.34104
lclavicle 7.05686e-015 -1.82882e-014
lhumerus -19.148 14.3787 69.9614
lradius 131.052
lwrist 16.7692
lhand -52.9084 -9.72665
lfingers 7.12502
lthumb -25.378 18.6044
rfemur -2.47088 13.7652 20.8525
rtibia 22.771
rfoot -26.54 -28.9834
rtoes -16.9259
lfemur -1.01712 -15.1348 -16.989
ltibia 22.285
lfoot -19.8147 27.7265
ltoes -14.2184
470
root 8.39896 15.4148 3.82929 177.173 8.25673 -179.276
lowerback 11.1493 1.64718 -0.714564
upperback 4.69099 2.58047 -1.63629
thorax -1.30733 1.50742 -1.60716
lowerneck -4.57758 7.9824 12.5894
upperneck 3.11364 10.385 -10.2671
head 2.86667 5.07974 -4.63759
rclavicle -4.57205e-015 -3.18055e-015
rhumerus -16.0821 -3.45513 -55.9923
rradius 129.862
rwrist -23.0486
rhand -34.2353 35.5861
rfingers 7.12502
rthumb -7.40671 5.7358
lclavicle -4.57205e-015 -3.18055e-015
lhumerus -18.9355 12.5121 68.5756
lradius 129.157
lwrist 7.95767
lhand -48.5974 -13.5026
lfingers 7.12502
lthumb -21.2423 15.3534
rfemur -2.33496 13.6848 20.9531
rtibia 22.7244
rfoot -26.5415 -29.1304
rtoes -17.1449
lfemur -1.16138 -14.9296 -16.8617
ltibia 22.5179
lfoot -19.5941 27.4368
ltoes -14.8458
471
root 8.40181 15.4124 3.83193 177.122 8.0398 -179.18
lowerback 11.3237 1.59962 -0.625027
upperback 4.82022 2.54929 -1.6715
thorax -1.26293 1.50387 -1.69414
lowerneck -4.66834 7.93719 12.6131
upperneck 3.14494 10.3066 -10.1833
head 2.87834 5.04015 -4.61746
rclavicle 2.98177e-015 -2.94201e-014
rhumerus -15.8794 -4.14216 -54.4119
rradius 127.439
rwrist -24.9318
rhand -35.434 33.3749
rfingers 7.12502
rthumb -8.56363 3.56856
lclavicle 2.98177e-015 -2.94201e-014
lhumerus -18.4157 11.0222 66.0914
lradius 127.077
lwrist -1.53615
lhand -43.1322 -18.5864
lfingers 7.12502
lthumb -15.9857 10.774
rfemur -2.21785 13.6061 21.0869
rtibia 22.6875
rfoot -26.5122 -29.286
rtoes -17.3772
lfemur -1.32329 -14.7401 -16.6978
ltibia 22.7648
lfoot -19.4066 27.1421
ltoes -15.3807
472
root 8.4037 15.411 3.83653 177.092 7.85224 -179.096
lowerback 11.5208 1.56279 -0.51583
upperback 4.95151 2.5366 -1.74783
thorax -1.22535 1.51165 -1.83794
lowerneck -4.76409 7.87332 12.6151
upperneck 3.13044 10.1948 -10.0143
head 2.86754 4.98539 -4.57106
rclavicle 1.51076e-014 -1.19271e-014
rhumerus -15.7711 -4.64451 -52.1917
rradius 124.86
rwrist -26.7447
rhand -36.9209 30.0171
rfingers 7.12502
rthumb -9.99833 0.27456
lclavicle 1.51076e-014 -1.19271e-014
lhumerus -17.5317 9.93335 62.77
lradius 125.055
lwrist -9.93535
lhand -38.2854 -24.0232
lfingers 7.12502
lthumb -11.3145 5.65163
rfemur -2.16613 13.48 21.1916
rtibia 22.6915
rfoot -26.3257 -29.454
rtoes -17.9272
lfemur -1.49679 -14.5676 -16.5455
ltibia 22.9866
lfoot -19.2395 26.8646
ltoes -15.8021
473
root 8.40522 15.411 3.84272 177.088 7.69192 -179.07
lowerback 11.7389 1.54764 -0.464022
upperback 5.08224 2.54892 -1.85095
thorax -1.1998 1.5328 -1.98145
lowerneck -4.88867 7.79015 12.5622
upperneck 3.08555 10.052 -9.7851
head 2.84302 4.91541 -4.49948
rclavicle 3.04141e-014 -3.4191e-014
rhumerus -15.8074 -4.89081 -49.5539
rradius 122.48
rwrist -28.2672
rhand -38.7128 26.3936
rfingers 7.12502
rthumb -11.7267 -3.25817
lclavicle 3.04141e-014 -3.4191e-014
lhumerus -16.306 8.95202 59.0265
lradius 123.221
lwrist -15.3644
lhand -35.2392 -28.4075
lfingers 7.12502
lthumb -8.37559 1.40643
rfemur -2.20774 13.2654 21.2131
rtibia 22.7637
rfoot -25.928 -29.6303
rtoes -18.9534
lfemur -1.66824 -14.4222 -16.4543
ltibia 23.1442
lfoot -19.0631 26.6319
ltoes -16.1517
474
root 8.40704 15.4124 3.85006 177.111 7.5409 -179.105
lowerback 11.9794 1.54661 -0.508129
upperback 5.21335 2.5717 -1.95433
thorax -1.18899 1.55892 -2.07384
lowerneck -5.03472 7.70172 12.448
upperneck 2.99774 9.90288 -9.55856
head 2.80602 4.84132 -4.41961
rclavicle -2.92213e-014 -1.74931e-014
rhumerus -16.0027 -4.88753 -46.7518
rradius 120.635
rwrist -29.2585
rhand -40.8381 23.3677
rfingers 7.12502
rthumb -13.7756 -6.15625
lclavicle -2.92213e-014 -1.74931e-014
lhumerus -14.8831 7.95284 55.255
lradius 121.631
lwrist -17.0378
lhand -33.8424 -30.9405
lfingers 7.12502
lthumb -7.02741 -1.07716
rfemur -2.34496 12.9554 21.1485
rtibia 22.9122
rfoot -25.3523 -29.8044
rtoes -20.3816
lfemur -1.82903 -14.3178 -16.4295
ltibia 23.2164
lfoot -18.869 26.4445
ltoes -16.4246
475
root 8.40965 15.4154 3.85814 177.16 7.37949 -179.186
lowerback 12.2461 1.53587 -0.656743
upperback 5.34663 2.5714 -2.035
thorax -1.19562 1.57242 -2.08232
lowerneck -5.18058 7.63315 12.2802
upperneck 2.85184 9.78663 -9.39099
head 2.75626 4.78188 -4.34802
rclavicle -1.55052e-014 2.22639e-014
rhumerus -16.3171 -4.70645 -44.0026
rradius 119.513
rwrist -29.4471
rhand -43.0592 21.7818
rfingers 7.12502
rthumb -15.9154 -7.58426
lclavicle -1.55052e-014 2.22639e-014
lhumerus -13.4607 7.04567 51.6795
lradius 120.315
lwrist -15.2854
lhand -33.6822 -31.7017
lfingers 7.12502
lthumb -6.8728 -1.83324
rfemur -2.5532 12.5891 21.0252
rtibia 23.118
rfoot -24.6892 -29.9719
rtoes -22.0009
lfemur -1.98199 -14.2625 -16.4516
ltibia 23.2107
lfoot -18.6644 26.2899
ltoes -16.6092
476
root 8.41318 15.4192 3.86649 177.225 7.19813 -179.286
lowerback 12.5539 1.50012 -0.885698
upperback 5.47876 2.52866 -2.08617
thorax -1.23089 1.56346 -2.01136
lowerneck -5.3045 7.6003 12.0725
upperneck 2.63993 9.72668 -9.29689
head 2.6916 4.74913 -4.29053
rclavicle 1.61016e-014 -2.46493e-014
rhumerus -16.7139 -4.52277 -41.5117
rradius 119.151
rwrist -28.7113
rhand -44.9981 22.1274
rfingers 7.12502
rthumb -17.7818 -7.07961
lclavicle 1.61016e-014 -2.46493e-014
lhumerus -12.1865 6.43833 48.4776
lradius 119.372
lwrist -11.0741
lhand -34.3879 -31.0783
lfingers 7.12502
lthumb -7.55398 -1.23323
rfemur -2.79018 12.2235 20.8796
rtibia 23.3468
rfoot -24.08 -30.109
rtoes -23.4887
lfemur -2.13142 -14.2516 -16.4934
ltibia 23.1571
lfoot -18.4619 26.1551
ltoes -16.7277
477
root 8.41722 15.4232 3.87484 177.298 6.99901 -179.377
lowerback 12.9035 1.43707 -1.1426
upperback 5.60732 2.44508 -2.11837
thorax -1.29435 1.53362 -1.90109
lowerneck -5.38268 7.60023 11.8611
upperneck 2.35543 9.718 -9.26925
head 2.60681 4.74189 -4.25202
rclavicle -2.127e-014 -1.43125e-014
rhumerus -17.1761 -4.54784 -39.4426
rradius 119.5
rwrist -27.1576
rhand -46.1906 24.5606
rfingers 7.12502
rthumb -18.929 -4.53838
lclavicle -2.127e-014 -1.43125e-014
lhumerus -11.1146 6.39613 45.7824
lradius 118.817
lwrist -5.74086
lhand -35.4691 -29.9065
lfingers 7.12502
lthumb -8.59753 -0.10156
rfemur -3.02487 11.9001 20.7459
rtibia 23.5677
rfoot -23.624 -30.2009
rtoes -24.6276
lfemur -2.28581 -14.2693 -16.5267
ltibia 23.0923
lfoot -18.2588 26.0376
ltoes -16.86
478
root 8.42122 15.4267 3.88336 177.379 6.79483 -179.451
lowerback 13.2762 1.35455 -1.40042
upperback 5.73513 2.33451 -2.14822
thorax -1.37026 1.49074 -1.78441
lowerneck -5.40807 7.6237 11.6861
upperneck 2.00852 9.74447 -9.28481
head 2.50264 4.75343 -4.23292
rclavicle -6.95746e-015 -2.54444e-014
rhumerus -17.6931 -4.93397 -37.8921
rradius 120.418
rwrist -25.1006
rhand -46.1905 28.5223
rfingers 7.12502
rthumb -18.9289 -0.576622
lclavicle -6.95746e-015 -2.54444e-014
lhumerus -10.258 7.01304 43.6665
lradius 118.656
lwrist -0.404072
lhand -36.4053 -28.4341
lfingers 7.12502
lthumb -9.50092 1.33173
rfemur -3.24659 11.6551 20.6351
rtibia 23.7622
rfoot -23.3758 -30.2517
rtoes -25.2907
lfemur -2.45885 -14.2942 -16.5428
ltibia 23.0492
lfoot -18.0552 25.9355
ltoes -17.0445
479
root 8.42437 15.4296 3.89268 177.465 6.60508 -179.509
lowerback 13.678 1.27263 -1.64504
upperback 5.85114 2.2234 -2.18668
thorax -1.47165 1.44801 -1.68463
lowerneck -5.39568 7.65209 11.5616
upperneck 1.64295 9.7778 -9.30392
head 2.39017 4.77026 -4.22417
rclavicle -1.21259e-014 -1.11319e-014
rhumerus -18.2494 -5.77328 -36.9458
rradius 121.749
rwrist -22.838
rhand -45.001 32.9201
rfingers 7.12502
rthumb -17.7847 3.71331
lclavicle -1.21259e-014 -1.11319e-014
lhumerus -9.57377 8.14703 42.2204
lradius 118.855
lwrist 4.23097
lhand -37.4011 -26.1995
lfingers 7.12502
lthumb -10.4616 3.52018
rfemur -3.45638 11.4942 20.5413
rtibia 23.9232
rfoot -23.3173 -30.2655
rtoes -25.491
lfemur -2.66316 -14.3094 -16.5437
ltibia 23.0552
lfoot -17.8849 25.8343
ltoes -17.1849
